<mxfile host="app.diagrams.net" agent="Mozilla/5.0 (Macintosh; Intel Mac OS X 10_15_7) AppleWebKit/537.36 (KHTML, like Gecko) Chrome/141.0.0.0 Safari/537.36" version="28.2.5">
  <diagram name="EDT E-CLOTHIFY" id="522Wata2yeVmePwJu29h">
    <mxGraphModel dx="1803" dy="605" grid="1" gridSize="10" guides="1" tooltips="1" connect="1" arrows="1" fold="1" page="1" pageScale="1" pageWidth="827" pageHeight="1169" math="0" shadow="0">
      <root>
        <mxCell id="0" />
        <mxCell id="1" parent="0" />
        <mxCell id="uIrqxgS_STiFdh9cupf7-1" value="Proyecto E-CLOTHIFY" style="rounded=1;whiteSpace=wrap;html=1;fontSize=16;fontStyle=1;align=center;verticalAlign=middle;" vertex="1" parent="1">
          <mxGeometry x="640" y="20" width="240" height="70" as="geometry" />
        </mxCell>
        <mxCell id="uIrqxgS_STiFdh9cupf7-2" value="1. Fase 1: Inicio y planificación" style="shape=rectangle;rounded=1;whiteSpace=wrap;html=1;fontSize=12;align=center;verticalAlign=middle;strokeColor=#555555;fillColor=#A7C7E7;" vertex="1" parent="1">
          <mxGeometry x="-70" y="170" width="280" height="60" as="geometry" />
        </mxCell>
        <mxCell id="uIrqxgS_STiFdh9cupf7-3" style="edgeStyle=orthogonalEdgeStyle;rounded=0;endArrow=block;html=1;" edge="1" parent="1" source="uIrqxgS_STiFdh9cupf7-1" target="uIrqxgS_STiFdh9cupf7-2">
          <mxGeometry relative="1" as="geometry" />
        </mxCell>
        <mxCell id="uIrqxgS_STiFdh9cupf7-4" value="1.1 Acta de constitución y alcance" style="shape=rectangle;rounded=1;whiteSpace=wrap;html=1;fontSize=11;align=left;verticalAlign=middle;strokeColor=#777777;fillColor=#FFFFFF;" vertex="1" parent="1">
          <mxGeometry x="90" y="250" width="220" height="50" as="geometry" />
        </mxCell>
        <mxCell id="uIrqxgS_STiFdh9cupf7-6" value="1.2 Plan de dirección del proyecto" style="shape=rectangle;rounded=1;whiteSpace=wrap;html=1;fontSize=11;align=left;verticalAlign=middle;strokeColor=#777777;fillColor=#FFFFFF;" vertex="1" parent="1">
          <mxGeometry x="90" y="320" width="220" height="50" as="geometry" />
        </mxCell>
        <mxCell id="uIrqxgS_STiFdh9cupf7-7" style="edgeStyle=orthogonalEdgeStyle;rounded=0;endArrow=block;html=1;entryX=0;entryY=0.5;entryDx=0;entryDy=0;" edge="1" parent="1" source="uIrqxgS_STiFdh9cupf7-2" target="uIrqxgS_STiFdh9cupf7-6">
          <mxGeometry relative="1" as="geometry" />
        </mxCell>
        <mxCell id="uIrqxgS_STiFdh9cupf7-8" value="1.3 Planes de gestión (alcance, requisitos, comunicaciones)" style="shape=rectangle;rounded=1;whiteSpace=wrap;html=1;fontSize=11;align=left;verticalAlign=middle;strokeColor=#777777;fillColor=#FFFFFF;" vertex="1" parent="1">
          <mxGeometry x="90" y="390" width="220" height="50" as="geometry" />
        </mxCell>
        <mxCell id="uIrqxgS_STiFdh9cupf7-9" style="edgeStyle=orthogonalEdgeStyle;rounded=0;endArrow=block;html=1;" edge="1" parent="1" source="uIrqxgS_STiFdh9cupf7-2" target="uIrqxgS_STiFdh9cupf7-8">
          <mxGeometry relative="1" as="geometry">
            <Array as="points">
              <mxPoint x="70" y="410" />
            </Array>
          </mxGeometry>
        </mxCell>
        <mxCell id="uIrqxgS_STiFdh9cupf7-10" value="1.4 Definición de arquitectura y entorno técnico" style="shape=rectangle;rounded=1;whiteSpace=wrap;html=1;fontSize=11;align=left;verticalAlign=middle;strokeColor=#777777;fillColor=#FFFFFF;" vertex="1" parent="1">
          <mxGeometry x="90" y="460" width="220" height="50" as="geometry" />
        </mxCell>
        <mxCell id="uIrqxgS_STiFdh9cupf7-12" value="2. Fase 2: Diseño y desarrollo funcional" style="shape=rectangle;rounded=1;whiteSpace=wrap;html=1;fontSize=12;align=center;verticalAlign=middle;strokeColor=#555555;fillColor=#B5EAD7;" vertex="1" parent="1">
          <mxGeometry x="380" y="170" width="280" height="60" as="geometry" />
        </mxCell>
        <mxCell id="uIrqxgS_STiFdh9cupf7-13" style="edgeStyle=orthogonalEdgeStyle;rounded=0;endArrow=block;html=1;" edge="1" parent="1" source="uIrqxgS_STiFdh9cupf7-1" target="uIrqxgS_STiFdh9cupf7-12">
          <mxGeometry relative="1" as="geometry">
            <Array as="points">
              <mxPoint x="760" y="130" />
              <mxPoint x="520" y="130" />
            </Array>
          </mxGeometry>
        </mxCell>
        <mxCell id="uIrqxgS_STiFdh9cupf7-14" value="2.1 Catálogo de productos y fichas" style="shape=rectangle;rounded=1;whiteSpace=wrap;html=1;fontSize=11;align=left;verticalAlign=middle;strokeColor=#777777;fillColor=#FFFFFF;" vertex="1" parent="1">
          <mxGeometry x="540" y="260" width="180" height="50" as="geometry" />
        </mxCell>
        <mxCell id="uIrqxgS_STiFdh9cupf7-16" value="2.2 Carrito de compra y checkout" style="shape=rectangle;rounded=1;whiteSpace=wrap;html=1;fontSize=11;align=left;verticalAlign=middle;strokeColor=#777777;fillColor=#FFFFFF;" vertex="1" parent="1">
          <mxGeometry x="540" y="330" width="180" height="50" as="geometry" />
        </mxCell>
        <mxCell id="uIrqxgS_STiFdh9cupf7-18" value="2.3 Métodos de pago e integración pasarela" style="shape=rectangle;rounded=1;whiteSpace=wrap;html=1;fontSize=11;align=left;verticalAlign=middle;strokeColor=#777777;fillColor=#FFFFFF;" vertex="1" parent="1">
          <mxGeometry x="540" y="390" width="180" height="50" as="geometry" />
        </mxCell>
        <mxCell id="uIrqxgS_STiFdh9cupf7-20" value="2.4 Gestión de pedidos" style="shape=rectangle;rounded=1;whiteSpace=wrap;html=1;fontSize=11;align=left;verticalAlign=middle;strokeColor=#777777;fillColor=#FFFFFF;" vertex="1" parent="1">
          <mxGeometry x="540" y="450" width="180" height="50" as="geometry" />
        </mxCell>
        <mxCell id="uIrqxgS_STiFdh9cupf7-21" style="edgeStyle=orthogonalEdgeStyle;rounded=0;endArrow=block;html=1;entryX=0;entryY=0.5;entryDx=0;entryDy=0;" edge="1" parent="1" source="uIrqxgS_STiFdh9cupf7-12" target="uIrqxgS_STiFdh9cupf7-20">
          <mxGeometry relative="1" as="geometry" />
        </mxCell>
        <mxCell id="uIrqxgS_STiFdh9cupf7-22" value="3. Fase 3: Integración, pruebas y despliegue" style="shape=rectangle;rounded=1;whiteSpace=wrap;html=1;fontSize=12;align=center;verticalAlign=middle;strokeColor=#555555;fillColor=#FFD6A5;" vertex="1" parent="1">
          <mxGeometry x="820" y="170" width="280" height="60" as="geometry" />
        </mxCell>
        <mxCell id="uIrqxgS_STiFdh9cupf7-23" style="edgeStyle=orthogonalEdgeStyle;rounded=0;endArrow=block;html=1;" edge="1" parent="1" source="uIrqxgS_STiFdh9cupf7-1" target="uIrqxgS_STiFdh9cupf7-22">
          <mxGeometry relative="1" as="geometry">
            <Array as="points">
              <mxPoint x="760" y="130" />
              <mxPoint x="1000" y="130" />
            </Array>
          </mxGeometry>
        </mxCell>
        <mxCell id="uIrqxgS_STiFdh9cupf7-24" value="3.1 Integración de componentes" style="shape=rectangle;rounded=1;whiteSpace=wrap;html=1;fontSize=11;align=left;verticalAlign=middle;strokeColor=#777777;fillColor=#FFFFFF;" vertex="1" parent="1">
          <mxGeometry x="1020" y="260" width="180" height="50" as="geometry" />
        </mxCell>
        <mxCell id="uIrqxgS_STiFdh9cupf7-25" style="edgeStyle=orthogonalEdgeStyle;rounded=0;endArrow=block;html=1;" edge="1" parent="1" source="uIrqxgS_STiFdh9cupf7-22" target="uIrqxgS_STiFdh9cupf7-24">
          <mxGeometry relative="1" as="geometry">
            <Array as="points">
              <mxPoint x="1000" y="285" />
            </Array>
          </mxGeometry>
        </mxCell>
        <mxCell id="uIrqxgS_STiFdh9cupf7-26" value="3.2 Pruebas funcionales y de aceptación" style="shape=rectangle;rounded=1;whiteSpace=wrap;html=1;fontSize=11;align=left;verticalAlign=middle;strokeColor=#777777;fillColor=#FFFFFF;" vertex="1" parent="1">
          <mxGeometry x="1020" y="330" width="180" height="50" as="geometry" />
        </mxCell>
        <mxCell id="uIrqxgS_STiFdh9cupf7-27" style="edgeStyle=orthogonalEdgeStyle;rounded=0;endArrow=block;html=1;" edge="1" parent="1" source="uIrqxgS_STiFdh9cupf7-22" target="uIrqxgS_STiFdh9cupf7-26">
          <mxGeometry relative="1" as="geometry">
            <Array as="points">
              <mxPoint x="1000" y="360" />
            </Array>
          </mxGeometry>
        </mxCell>
        <mxCell id="uIrqxgS_STiFdh9cupf7-28" value="3.3 Despliegue en entorno PaaS" style="shape=rectangle;rounded=1;whiteSpace=wrap;html=1;fontSize=11;align=left;verticalAlign=middle;strokeColor=#777777;fillColor=#FFFFFF;" vertex="1" parent="1">
          <mxGeometry x="1020" y="390" width="180" height="50" as="geometry" />
        </mxCell>
        <mxCell id="uIrqxgS_STiFdh9cupf7-29" style="edgeStyle=orthogonalEdgeStyle;rounded=0;endArrow=block;html=1;" edge="1" parent="1" source="uIrqxgS_STiFdh9cupf7-22" target="uIrqxgS_STiFdh9cupf7-28">
          <mxGeometry relative="1" as="geometry">
            <Array as="points">
              <mxPoint x="1000" y="410" />
            </Array>
          </mxGeometry>
        </mxCell>
        <mxCell id="uIrqxgS_STiFdh9cupf7-30" value="4. Fase 4: Documentación y cierre" style="shape=rectangle;rounded=1;whiteSpace=wrap;html=1;fontSize=12;align=center;verticalAlign=middle;strokeColor=#555555;fillColor=#FFB6B9;" vertex="1" parent="1">
          <mxGeometry x="1241" y="170" width="280" height="60" as="geometry" />
        </mxCell>
        <mxCell id="uIrqxgS_STiFdh9cupf7-31" style="edgeStyle=orthogonalEdgeStyle;rounded=0;endArrow=block;html=1;" edge="1" parent="1" source="uIrqxgS_STiFdh9cupf7-1" target="uIrqxgS_STiFdh9cupf7-30">
          <mxGeometry relative="1" as="geometry" />
        </mxCell>
        <mxCell id="uIrqxgS_STiFdh9cupf7-32" value="4.1 Documentación técnica y manuales" style="shape=rectangle;rounded=1;whiteSpace=wrap;html=1;fontSize=11;align=left;verticalAlign=middle;strokeColor=#777777;fillColor=#FFFFFF;" vertex="1" parent="1">
          <mxGeometry x="1400" y="250" width="210" height="50" as="geometry" />
        </mxCell>
        <mxCell id="uIrqxgS_STiFdh9cupf7-34" value="4.2 Cierre del proyecto y lecciones aprendidas" style="shape=rectangle;rounded=1;whiteSpace=wrap;html=1;fontSize=11;align=left;verticalAlign=middle;strokeColor=#777777;fillColor=#FFFFFF;" vertex="1" parent="1">
          <mxGeometry x="1400" y="330" width="210" height="50" as="geometry" />
        </mxCell>
        <mxCell id="uIrqxgS_STiFdh9cupf7-39" value="" style="endArrow=classic;html=1;rounded=0;entryX=0;entryY=0.5;entryDx=0;entryDy=0;" edge="1" parent="1" target="uIrqxgS_STiFdh9cupf7-4">
          <mxGeometry width="50" height="50" relative="1" as="geometry">
            <mxPoint x="70" y="275" as="sourcePoint" />
            <mxPoint x="480" y="350" as="targetPoint" />
          </mxGeometry>
        </mxCell>
        <mxCell id="uIrqxgS_STiFdh9cupf7-43" value="" style="endArrow=classic;html=1;rounded=0;entryX=0;entryY=0.5;entryDx=0;entryDy=0;" edge="1" parent="1" target="uIrqxgS_STiFdh9cupf7-10">
          <mxGeometry width="50" height="50" relative="1" as="geometry">
            <mxPoint x="70" y="410" as="sourcePoint" />
            <mxPoint x="270" y="340" as="targetPoint" />
            <Array as="points">
              <mxPoint x="70" y="485" />
            </Array>
          </mxGeometry>
        </mxCell>
        <mxCell id="uIrqxgS_STiFdh9cupf7-44" value="" style="endArrow=classic;html=1;rounded=0;entryX=0;entryY=0.5;entryDx=0;entryDy=0;" edge="1" parent="1" target="uIrqxgS_STiFdh9cupf7-14">
          <mxGeometry width="50" height="50" relative="1" as="geometry">
            <mxPoint x="520" y="285" as="sourcePoint" />
            <mxPoint x="540" y="370" as="targetPoint" />
          </mxGeometry>
        </mxCell>
        <mxCell id="uIrqxgS_STiFdh9cupf7-46" value="" style="endArrow=classic;html=1;rounded=0;entryX=0;entryY=0.5;entryDx=0;entryDy=0;" edge="1" parent="1" target="uIrqxgS_STiFdh9cupf7-16">
          <mxGeometry width="50" height="50" relative="1" as="geometry">
            <mxPoint x="520" y="355" as="sourcePoint" />
            <mxPoint x="540" y="370" as="targetPoint" />
          </mxGeometry>
        </mxCell>
        <mxCell id="uIrqxgS_STiFdh9cupf7-47" value="" style="endArrow=classic;html=1;rounded=0;entryX=0;entryY=0.4;entryDx=0;entryDy=0;entryPerimeter=0;" edge="1" parent="1" target="uIrqxgS_STiFdh9cupf7-18">
          <mxGeometry width="50" height="50" relative="1" as="geometry">
            <mxPoint x="520" y="410" as="sourcePoint" />
            <mxPoint x="540" y="370" as="targetPoint" />
          </mxGeometry>
        </mxCell>
        <mxCell id="uIrqxgS_STiFdh9cupf7-48" value="" style="endArrow=classic;html=1;rounded=0;exitX=0.5;exitY=1;exitDx=0;exitDy=0;" edge="1" parent="1" source="uIrqxgS_STiFdh9cupf7-30" target="uIrqxgS_STiFdh9cupf7-34">
          <mxGeometry width="50" height="50" relative="1" as="geometry">
            <mxPoint x="1130" y="380" as="sourcePoint" />
            <mxPoint x="1390" y="360" as="targetPoint" />
            <Array as="points">
              <mxPoint x="1381" y="360" />
            </Array>
          </mxGeometry>
        </mxCell>
        <mxCell id="uIrqxgS_STiFdh9cupf7-49" value="" style="endArrow=classic;html=1;rounded=0;" edge="1" parent="1">
          <mxGeometry width="50" height="50" relative="1" as="geometry">
            <mxPoint x="1380" y="280" as="sourcePoint" />
            <mxPoint x="1400" y="280" as="targetPoint" />
          </mxGeometry>
        </mxCell>
      </root>
    </mxGraphModel>
  </diagram>
</mxfile>
